<svg id="Layer_1" data-name="Layer 1" xmlns="http://www.w3.org/2000/svg" viewBox="0 0 199.99 194.83"><path d="M13.28,195.23V66.65c.11-.48.26-1,.34-1.46.18-1.06.27-2.13.48-3.18a35.32,35.32,0,0,1,30-28.11l2.52-.34H180.17l.63.15c1.26.16,2.53.22,3.77.48,11.79,2.49,20.34,9.16,25.54,20a29.84,29.84,0,0,1,3,11.79,2.65,2.65,0,0,0,.16.63V195.23c-.08.78-.14,1.56-.25,2.33a33.35,33.35,0,0,1-4.48,13.13c-7,11.53-17.4,17.59-30.88,17.63-42.87.13-85.75.05-128.63.05a37.33,37.33,0,0,1-7.45-.79,35.34,35.34,0,0,1-27.77-29.41C13.67,197.17,13.46,196.17,13.28,195.23Zm80.55-45.06.52,1.45,6,17.53c.44,1.3.62,1.43,2,1.43h16.27c1.74,0,1.94-.29,1.34-2l-5.28-14.76-21.5-60c-1.1-3.07-2.22-6.14-3.29-9.22a1.27,1.27,0,0,0-1.33-1h-21c-1,0-1.24.23-1.23,1.14a24.76,24.76,0,0,1-1.65,8.72q-9.15,26.1-18.24,52.21-4,11.49-8,23a5.55,5.55,0,0,0-.3,1.28c0,.62.19.88.8,1a5.42,5.42,0,0,0,.57,0h15.1c1.11,0,1.48-.27,1.81-1.3Q59.26,161,62,152.38c.24-.72.48-1.44.73-2.17Zm49-7.56H168.6c.51,0,1,0,1.52,0,2.53.08,5.07.22,7.6.22,1.58,0,3.16-.22,4.74-.32,1.13-.08,1.48-.34,1.59-1.46.17-1.77.3-3.54.41-5.31A35.15,35.15,0,0,0,182.81,122a25.47,25.47,0,0,0-24.69-18.26,59.59,59.59,0,0,0-6.94.2,24.2,24.2,0,0,0-8.51,2.18,30.92,30.92,0,0,0-14.51,14.26A39.18,39.18,0,0,0,124,136.66a40.21,40.21,0,0,0,2.7,17.23,28.35,28.35,0,0,0,16.67,16.52,39,39,0,0,0,12.56,2.32,60.65,60.65,0,0,0,12.41-.71,41,41,0,0,0,9.24-2.5,1.86,1.86,0,0,0,1.33-1.94V155a6.87,6.87,0,0,0-.14-1c-.9.31-1.66.61-2.44.84A55.62,55.62,0,0,1,162.46,157a26,26,0,0,1-11.37-2.24,12.75,12.75,0,0,1-4.23-3,15.67,15.67,0,0,1-3.74-7.67A9.74,9.74,0,0,1,142.83,142.61Z" transform="translate(-13.28 -33.56)"/><path d="M78.11,99.11c3.14,11.51,6.92,22.83,10.54,34.29H67.74a2.44,2.44,0,0,1,.07-.46c1.68-5.41,3.39-10.81,5.06-16.23q1.95-6.36,3.83-12.73c.42-1.43.71-2.9,1-4.34a1.91,1.91,0,0,1,.14-.52Z" transform="translate(-13.28 -33.56)"/><path d="M142.82,130.41c.09-.6.14-1.06.24-1.52a14,14,0,0,1,4.3-7.87,11.57,11.57,0,0,1,7.37-2.87,12,12,0,0,1,6.52,1.34,10.89,10.89,0,0,1,5.75,9.36c0,.85,0,1-.85,1.23a5.29,5.29,0,0,1-1.58.27c-2.53,0-5.07.05-7.61.06Z" transform="translate(-13.28 -33.56)"/></svg>