<svg id="Layer_1" data-name="Layer 1" xmlns="http://www.w3.org/2000/svg" viewBox="0 0 200 226.83"><path d="M113.52,256.86h-.67a4.32,4.32,0,0,0-.67-.28L74.8,246.2,32.13,234.36c-.41-.11-.67-.21-.71-.73-.36-4.32-.76-8.64-1.14-12.95q-.72-7.81-1.39-15.61-.81-9-1.61-17.94-.72-7.89-1.4-15.77-.79-9-1.6-17.94l-1.41-15.77L21.28,119.8q-.72-7.89-1.4-15.78-.79-9-1.61-18-.72-7.84-1.4-15.7-.81-8.92-1.6-17.85l-1.44-16.1c-.18-2.1-.36-4.19-.55-6.34h200q-9.1,102.09-18.21,204.11l-.75.22-19,5.28-56.23,15.59C117.22,255.74,115.37,256.31,113.52,256.86ZM58.37,160v.46q1.68,19,3.39,38.11c.06.62.3.82.86,1,4.24,1.15,8.46,2.33,12.69,3.51l37.25,10.33a2.56,2.56,0,0,0,1.29,0l50-13.82a1,1,0,0,0,.83-1q1.74-20,3.56-39.93,2-22,3.92-44,1.71-19.29,3.46-38.6c.13-1.42.24-2.85.37-4.3H50.46l2.28,25h95.69c-.76,8.56-1.52,17-2.28,25.61H55c.75,8.4,1.49,16.69,2.24,25.07H144l-.34,4c-.82,9.16-1.65,18.32-2.44,27.48a1.18,1.18,0,0,1-1,1.22q-13.26,3.54-26.53,7.12a2.11,2.11,0,0,1-1,0c-8.85-2.38-17.69-4.79-26.55-7.15a1,1,0,0,1-.89-1c-.33-3.91-.69-7.81-1-11.71-.22-2.46-.45-4.92-.67-7.39Z" transform="translate(-13.28 -30.03)"/></svg>