<svg id="Layer_1" data-name="Layer 1" xmlns="http://www.w3.org/2000/svg" viewBox="0 0 200 226.8"><path d="M113.38,256.84h-.6c-.3-.1-.5-.2-.8-.3l-22.2-6.2-42-11.6-15.7-4.4c-.3-.1-.7-.1-.7-.6-.1-1.6-.3-3.2-.4-4.7-.4-4.4-.8-8.7-1.2-13.1l-1.3-14.8c-.4-4.4-.8-8.7-1.2-13.1-.4-5-.9-9.9-1.3-14.9-.4-4.3-.8-8.7-1.2-13-.4-4.9-.9-9.8-1.3-14.7s-.9-9.8-1.3-14.7-.9-9.8-1.3-14.8c-.4-4.4-.8-8.7-1.2-13.1-.4-4.9-.9-9.8-1.3-14.8-.4-4.4-.8-8.7-1.2-13.1-.4-4.9-.9-9.8-1.3-14.7l-1.3-14.5-1.3-15.2V30h200v.5c-.3,3.9-.7,7.9-1,11.8-.5,5.9-1.1,11.8-1.6,17.8-.5,5.4-1,10.8-1.4,16.2-.5,5.9-1.1,11.9-1.6,17.8s-1,11.8-1.6,17.8-1.1,11.8-1.6,17.8c-.5,5.4-1,10.8-1.4,16.3-.5,5.9-1.1,11.8-1.6,17.8-.5,5.4-1,10.8-1.4,16.3-.6,6.4-1.2,12.9-1.7,19.3-.5,5.4-.9,10.8-1.4,16.3-.5,5.9-1.1,11.8-1.6,17.8a1,1,0,0,1-.9,1.1c-9.9,2.7-19.8,5.5-29.6,8.2l-46.6,12.9A35.21,35.21,0,0,0,113.38,256.84Zm-56.1-109.4h86.8c-.3,2.9-.5,5.6-.7,8.4-.4,3.8-.7,7.7-1.1,11.5-.4,4-.7,8-1.1,11.9a1,1,0,0,1-.7.9l-26.7,7.1a1.7,1.7,0,0,1-1,0c-8.5-2.3-17-4.5-25.5-6.8-.6-.2-1.5-.2-1.8-.6a3.81,3.81,0,0,1-.3-1.9L84,164.44c-.1-1.5-.3-3-.4-4.5H58.38V161c.5,5.9,1.1,11.7,1.6,17.6.6,6.7,1.2,13.3,1.8,20,0,.4.2.7.6.7,1.5.4,3,.8,4.6,1.3l45.7,12.7a1.27,1.27,0,0,0,.6.1l9-2.5c13.8-3.8,27.6-7.7,41.4-11.5a1,1,0,0,0,.9-1.1h0c.1-1.9.3-3.8.5-5.7l.9-9.9.9-10.1c.3-3.3.6-6.7.9-10l.9-9.9.9-10c.3-3.3.6-6.6.9-10s.6-6.6.9-9.9v-.6H80.18c-.8-8.5-1.5-17-2.3-25.6h95.8c.8-8.4,1.5-16.7,2.3-25H50.38C52.68,96.94,55,122.14,57.28,147.44Z" transform="translate(-13.28 -30.04)"/></svg>