<svg id="Layer_1" data-name="Layer 1" xmlns="http://www.w3.org/2000/svg" viewBox="0 0 199.99 194.65"><path d="M180.79,228.3H46a3.89,3.89,0,0,1-.55-.12c-1.28-.19-2.58-.3-3.85-.57A35.48,35.48,0,0,1,13.31,192.7q-.06-61.78,0-123.58a37,37,0,0,1,.82-7.41,34.55,34.55,0,0,1,5-12A35.4,35.4,0,0,1,49.05,33.65H177.6a36.15,36.15,0,0,1,6.06.48,35.39,35.39,0,0,1,29.61,35.11V192a31.55,31.55,0,0,1-.16,3.89A33.75,33.75,0,0,1,210.32,207a35,35,0,0,1-13.55,15.8,34.29,34.29,0,0,1-13.12,5C182.71,228,181.75,228.15,180.79,228.3ZM79.24,150.42H109.4c1,0,.82,0,1.11.82Q113.75,160.6,117,170c.35,1,.62,1.21,1.66,1.21H135.4c1.19,0,1.53-.24,1.11-1.62l-.09-.23c-.45-1.27-.89-2.55-1.34-3.82q-5.82-16.41-11.65-32.81-4.79-13.46-9.54-26.91l-5.8-16.38c-.59-1.68-1.21-3.35-1.78-5a1.06,1.06,0,0,0-1.13-.83h-21c-1,0-1.13.12-1.21,1.16a35.86,35.86,0,0,1-.4,4.27,36.49,36.49,0,0,1-1.38,4.83c-2.18,6.34-4.4,12.67-6.6,19L68,131.91q-2.56,7.34-5.15,14.68L59.17,157q-2.14,6.17-4.28,12.34c-.48,1.38-.18,1.81,1.25,1.82h15A1.58,1.58,0,0,0,73,169.88v0q2.31-7.11,4.61-14.27C78.1,153.86,78.66,152.17,79.24,150.42ZM145.5,137.9v32.18a1.09,1.09,0,0,0,1,1.15h16.58a.9.9,0,0,0,.93-.85,8.34,8.34,0,0,0,0-1V105.85c0-.82-.32-1.1-1.15-1.14H146.76c-1,0-1.25.27-1.26,1.25V137.9Zm-1-50.78c.12.91.16,1.83.36,2.73a9.4,9.4,0,0,0,5.85,7.07,11,11,0,0,0,5,.76,9.57,9.57,0,0,0,8.69-6.07,10.81,10.81,0,0,0,.71-6.45,9.36,9.36,0,0,0-5.59-7.46,11.42,11.42,0,0,0-7.23-.51,9.86,9.86,0,0,0-5.24,3.07A10,10,0,0,0,144.5,87.12Z" transform="translate(-13.28 -33.65)"/><path d="M105.28,133.61H84.11c.08-.33.12-.53.18-.72,2.26-7.28,4.55-14.55,6.78-21.84.94-3.08,1.78-6.19,2.64-9.29.24-.85.4-1.73.6-2.6a1.07,1.07,0,0,1,.09-.27c.11.06.18.07.19.1a1.74,1.74,0,0,1,.14.38C97.9,110.82,101.63,122.09,105.28,133.61Z" transform="translate(-13.28 -33.65)"/></svg>