<svg id="Layer_1" data-name="Layer 1" xmlns="http://www.w3.org/2000/svg" viewBox="0 0 199.99 195.04"><path d="M113.22,228.48h-64c-11.13,0-20.43-4.14-27.65-12.62a34.36,34.36,0,0,1-8.29-22.92c0-41.19.13-82.39,0-123.58-.07-17.27,12.07-31.93,28.09-35.09A44.49,44.49,0,0,1,50,33.49q63.77-.06,127.54,0c17.54,0,31.45,11.37,35.1,28.51a33.52,33.52,0,0,1,.62,7q.06,62.06,0,124.12a35.21,35.21,0,0,1-30.86,35.1,55.51,55.51,0,0,1-7.41.25ZM58.36,127.19v42c0,.52.35,1.37.72,1.49a12.57,12.57,0,0,0,3.33.47H73.26c2.77,0,3-.16,3-3q0-11.58-.08-23.15c0-1.3.34-1.92,1.89-1.89,4.11.11,8.25.17,12.35-.1a40.15,40.15,0,0,0,15.94-4.09,27.68,27.68,0,0,0,12.25-12.69c2.42-4.76,2.73-10,2.49-15.3a26.5,26.5,0,0,0-13.76-22.65,30.52,30.52,0,0,0-10.07-4,93.85,93.85,0,0,0-13.4-1.08c-7.29-.09-14.59.19-21.88.28-3.64,0-3.65,0-3.65,3.64Q58.31,107.19,58.36,127.19Zm71.87,25.29c0,5,.07,9.64,0,14.33a2.68,2.68,0,0,0,2.11,2.87c3.94,1.07,7.89,2.46,11.91,2.75a114.27,114.27,0,0,0,15.59-.4c4.23-.29,7.9-2.3,11.24-4.77a18.28,18.28,0,0,0,7.52-14,16.7,16.7,0,0,0-4.67-13.48,25.68,25.68,0,0,0-6.25-4.76c-4.17-2.19-8.51-4-12.87-5.84-2.54-1-5.09-2.11-6.56-4.44a4.5,4.5,0,0,1,0-3.89c.92-1.58,2.83-2.22,4.7-2.35a40.38,40.38,0,0,1,16.56,2.35c1.76.62,3.59,1.07,5.64,1.68,0-5.16.09-9.74-.09-14.31a3.11,3.11,0,0,0-2-2.21,112.36,112.36,0,0,0-13.53-2.15,41.29,41.29,0,0,0-10.17.64,32.06,32.06,0,0,0-8.42,2.74,22.83,22.83,0,0,0-5.3,4.24c-4.13,3.9-5.46,8.91-5.34,14.4a9.45,9.45,0,0,0,.72,2.66c.74,2.06,1.12,4.39,2.36,6.08,3.48,4.75,8.41,7.69,13.77,10,3.73,1.58,7.47,3.16,11.08,5,3,1.51,3.17,3.92,1.11,6.47-1.23,1.52-3,1.56-4.46,1.7a38.07,38.07,0,0,1-21.3-4C132.58,153.32,131.51,153,130.23,152.48Z" transform="translate(-13.28 -33.46)"/><path d="M76.24,113.68V101.21c0-1.4.24-2,2.06-1.85,3.88.28,7.81-.09,11.71,0a14.23,14.23,0,0,1,4.41,1.16,13.72,13.72,0,0,1,8.29,8.18c2.3,5.88-.8,14-6.46,16.69a21.57,21.57,0,0,1-9.88,2.33c-2.92-.08-5.84.23-8.77.28-1.19,0-1.38-.87-1.37-1.88C76.25,122,76.24,117.84,76.24,113.68Z" transform="translate(-13.28 -33.46)"/></svg>