<svg id="Layer_1" data-name="Layer 1" xmlns="http://www.w3.org/2000/svg" viewBox="0 0 200 195.02"><path d="M213.28,65.33V196.51a1.57,1.57,0,0,0-.16.52,23.6,23.6,0,0,1-1,5.59A35.37,35.37,0,0,1,183.62,228l-3.46.54H46.63c-.69-.11-1.37-.27-2.06-.34a32.21,32.21,0,0,1-11.43-3.39c-12.9-6.78-19.39-17.58-19.86-32.08V69.23a34.53,34.53,0,0,1,.64-6.81C16.31,50.56,23,42,33.92,36.71a35,35,0,0,1,15.51-3.23h129.4a32.48,32.48,0,0,1,13.73,3.1c11.27,5.37,18.08,14.21,20.35,26.51C213.07,63.86,213.17,64.6,213.28,65.33ZM79,143.15c1.58.07,3,.17,4.43.21a77.32,77.32,0,0,0,13.85-.73,36.58,36.58,0,0,0,11.83-3.71c6.74-3.67,11.46-9,13.56-16.52a35.22,35.22,0,0,0,1.1-12.72,28.69,28.69,0,0,0-4-12.57,27.85,27.85,0,0,0-14.19-11.42,44.55,44.55,0,0,0-15.36-2.8c-4-.07-8.06,0-12.09.1-3.52,0-7,.14-10.56.22L62,83.35c-.9,0-1,.19-1.09,1.06V169.5c0,1.46.18,1.64,1.64,1.65H77.84A1.13,1.13,0,0,0,79,170.09V143.18Zm74.42-29.82c-.09-1.2-.12-2.21-.27-3.2-.22-1.4-.47-2.81-.83-4.19a1.86,1.86,0,0,0-2-1.49h-14c-1,0-1.27.28-1.18,1.32.11,1.39.26,2.78.29,4.17.11,5.62.23,11.23.25,16.84v42.53a5.57,5.57,0,0,0,0,1,1.08,1.08,0,0,0,1.06,1h16.08a6.17,6.17,0,0,0,.86,0c.56-.08.76-.29.83-.87,0-.25,0-.51,0-.76v-41a2.1,2.1,0,0,1,.75-1.73,14.08,14.08,0,0,1,3.57-2.33A35.87,35.87,0,0,1,168,122a37.56,37.56,0,0,1,6.36-.42c1.6,0,1.78-.16,1.78-1.8V104.55c0-1.08-.36-1.41-1.43-1.41A24.6,24.6,0,0,0,168,104a30.06,30.06,0,0,0-13.84,8.53Z" transform="translate(-13.28 -33.47)"/><path d="M79.14,127.48V99.62a5.62,5.62,0,0,1,1-.15c3.24,0,6.48-.09,9.71,0a21.29,21.29,0,0,1,8.5,1.83,11.61,11.61,0,0,1,6.87,8.25,16.6,16.6,0,0,1-.27,8.65,11.77,11.77,0,0,1-6.13,6.93,21,21,0,0,1-7,2.11,42,42,0,0,1-5,.42c-2.22.06-4.44,0-6.66,0A5.36,5.36,0,0,0,79.14,127.48Z" transform="translate(-13.28 -33.47)"/></svg>