<svg xmlns="http://www.w3.org/2000/svg" viewBox="0 0 3859.83 1913.76"><defs><style>.cls-1{isolation:isolate;}.cls-12,.cls-13,.cls-2,.cls-4,.cls-5,.cls-8{fill:none;}.cls-2{stroke:#fff;stroke-dasharray:40 50 200;}.cls-12,.cls-2,.cls-4,.cls-5,.cls-8{stroke-miterlimit:10;}.cls-12,.cls-2{stroke-width:2px;}.cls-3{opacity:0.3;mix-blend-mode:multiply;}.cls-4{stroke:#000;}.cls-4,.cls-5{stroke-width:15px;}.cls-5{stroke:#f3d637;}.cls-6{fill:#f3d637;}.cls-7{fill:#5292ac;}.cls-8{stroke:#b92d3f;stroke-width:3px;}.cls-9{fill:#e3843a;}.cls-10{fill:#fff;}.cls-11{fill:#b92d3f;}.cls-12{stroke:#5292ac;stroke-dasharray:25 20 100;}</style></defs><g class="cls-1"><g id="OBJECTS"><line class="cls-2" x1="1838.13" y1="1048.6" x2="2010.69" y2="869.75"/><line class="cls-2" x1="1898.2" y1="1108.66" x2="2070.75" y2="929.82"/><g class="cls-3"><rect class="cls-4" x="887.09" y="-520.27" width="157.15" height="157.15" rx="7.98" transform="translate(2330.76 1396.34) rotate(-45)"/></g><rect class="cls-5" x="882.09" y="-523.27" width="157.15" height="157.15" rx="7.98" transform="translate(2331.42 1391.93) rotate(-45)"/><g class="cls-3"><rect x="898.09" y="-508.97" width="133.66" height="133.66" rx="6.79" transform="translate(2330.86 1395.68) rotate(-45)"/></g><rect class="cls-6" x="893.84" y="-511.52" width="133.66" height="133.66" rx="6.79" transform="translate(2331.42 1391.93) rotate(-45)"/><g class="cls-3"><path d="M1520-335.66l87.08,87.09L1520-161.49,1433-248.57,1520-335.66m0-20.72a7.91,7.91,0,0,0-5.64,2.33l-99.84,99.83a8,8,0,0,0,0,11.29l99.84,99.84a8,8,0,0,0,5.64,2.33,8,8,0,0,0,5.64-2.33l99.84-99.84a8,8,0,0,0,0-11.29L1525.67-354a7.92,7.92,0,0,0-5.64-2.33Z" transform="translate(1735.6 842.88)"/></g><path class="cls-7" d="M1515-338.66l87.08,87.09L1515-164.49,1428-251.57,1515-338.66m0-20.72a7.91,7.91,0,0,0-5.64,2.33l-99.84,99.83a8,8,0,0,0,0,11.29l99.84,99.84a8,8,0,0,0,5.64,2.33,8,8,0,0,0,5.64-2.33l99.84-99.84a8,8,0,0,0,0-11.29L1520.67-357a7.92,7.92,0,0,0-5.64-2.33Z" transform="translate(1735.6 842.88)"/><path class="cls-8" d="M1434.67,800.56c-13.15-37,7.18-80.09,39.79-102.06s74.33-26.11,113.42-21.92,76.93,15.92,115.56,23.21c19.32,3.65,40.38,5.93,57.71-3.36,23-12.36,31.66-40.4,46.73-61.77,21.61-30.64,57.88-48.12,94.54-56s74.51-7.24,112-9,75.72-6.28,109.17-23.21" transform="translate(1735.6 842.88)"/><g class="cls-3"><rect x="1151.99" y="244.39" width="157.15" height="157.15" rx="7.98" transform="translate(1867.65 1807.61) rotate(-45)"/></g><rect class="cls-9" x="1146.99" y="241.39" width="157.15" height="157.15" rx="7.98" transform="translate(1868.31 1803.2) rotate(-45)"/><path class="cls-10" d="M1276.38,63.56h-.05a1,1,0,0,0,0,2h.05a1,1,0,0,0,0-2Zm-4.62.79a1,1,0,0,0-.34.05h-.06a1,1,0,0,0-.6,1.28,1,1,0,0,0,1,.66,1.26,1.26,0,0,0,.33,0l0,0a1,1,0,0,0-.32-1.94Zm-4.1,2.28a1,1,0,0,0-.63.22l0,0a1,1,0,0,0-.15,1.4,1,1,0,0,0,.78.37,1,1,0,0,0,.63-.22l0,0a1,1,0,0,0,.14-1.41,1,1,0,0,0-.77-.37Zm-3.55,3.44a1,1,0,0,0-.71.3h0a1,1,0,0,0,0,1.41,1,1,0,0,0,.71.29,1,1,0,0,0,.7-.29l0,0a1,1,0,0,0,0-1.41,1,1,0,0,0-.7-.3Zm-3.58,3.58a1,1,0,0,0-.71.29l0,0a1,1,0,0,0,0,1.41,1,1,0,0,0,.7.3,1,1,0,0,0,.71-.3l0,0a1,1,0,0,0,0-1.41,1,1,0,0,0-.71-.29ZM1257,77.22a1,1,0,0,0-.71.29l0,0a1,1,0,0,0,0,1.42,1,1,0,0,0,.71.29,1,1,0,0,0,.71-.29l0,0a1,1,0,0,0,0-1.41,1,1,0,0,0-.7-.3Zm-3.58,3.58a1,1,0,0,0-.7.29l0,0a1,1,0,0,0,0,1.41,1,1,0,0,0,1.41,0l0,0a1,1,0,0,0,0-1.41,1,1,0,0,0-.71-.29Zm-3.57,3.57a1,1,0,0,0-.71.29l0,0a1,1,0,0,0,0,1.42,1,1,0,0,0,1.42,0l0,0a1,1,0,0,0,0-1.42,1,1,0,0,0-.71-.29ZM1246.23,88a1,1,0,0,0-.7.29l0,0a1,1,0,0,0,0,1.41,1,1,0,0,0,1.41,0l0,0a1,1,0,0,0,0-1.41,1,1,0,0,0-.71-.29Zm-3.57,3.57a1,1,0,0,0-.71.29h0l0,0a1,1,0,0,0,0,1.42,1,1,0,0,0,1.42,0l0,0a1,1,0,0,0,0-1.42,1,1,0,0,0-.71-.29Zm-3.58,3.57a1,1,0,0,0-.7.3l0,0a1,1,0,0,0,0,1.41,1,1,0,0,0,1.41,0l0,0a1,1,0,0,0,0-1.41,1,1,0,0,0-.71-.3Zm-3.57,3.58a1,1,0,0,0-.71.29l0,0a1,1,0,0,0,0,1.41,1,1,0,0,0,.71.3,1,1,0,0,0,.71-.3l0,0a1,1,0,0,0,0-1.42,1,1,0,0,0-.71-.29Zm-3.57,3.57a1,1,0,0,0-.71.29l0,0a1,1,0,0,0,0,1.41,1,1,0,0,0,.71.29,1,1,0,0,0,.7-.29l0,0a1,1,0,0,0,0-1.41,1,1,0,0,0-.7-.3Zm-3.58,3.58a1,1,0,0,0-.7.29l-.05,0a1,1,0,0,0,0,1.41,1,1,0,0,0,.7.3,1,1,0,0,0,.71-.3l0,0a1,1,0,0,0,0-1.41,1,1,0,0,0-.71-.29Zm-3.57,3.57a1,1,0,0,0-.71.29l0,0a1,1,0,0,0,0,1.41,1,1,0,0,0,.71.29,1,1,0,0,0,.71-.29l0,0a1,1,0,0,0-.7-1.71Zm-3.58,3.58a1,1,0,0,0-.7.29l0,0a1,1,0,0,0,0,1.41,1,1,0,0,0,1.41,0l0,0a1,1,0,0,0,0-1.41,1,1,0,0,0-.71-.29Zm-3.57,3.57a1,1,0,0,0-.71.29l0,0a1,1,0,0,0,0,1.42,1,1,0,0,0,1.42,0l0,0a1,1,0,0,0,0-1.42,1,1,0,0,0-.71-.29Zm-3.58,3.58a1,1,0,0,0-.7.29l0,0a1,1,0,0,0,0,1.41,1,1,0,0,0,1.41,0l0,0a1,1,0,0,0,0-1.41,1,1,0,0,0-.71-.29Zm-3.57,3.57a1,1,0,0,0-.7.29l0,0a1,1,0,0,0,0,1.42,1,1,0,0,0,1.42,0l0,0a1,1,0,0,0,0-1.42,1,1,0,0,0-.71-.29Zm-3.57,3.57a1,1,0,0,0-.71.29l0,0a1,1,0,0,0,0,1.41,1,1,0,0,0,1.41,0l0,0a1,1,0,0,0,0-1.41,1,1,0,0,0-.7-.3Zm-3.58,3.58a1,1,0,0,0-.71.29l0,0a1,1,0,0,0,0,1.41,1,1,0,0,0,.71.3,1,1,0,0,0,.71-.3l0,0a1,1,0,0,0,0-1.42,1,1,0,0,0-.71-.29Zm-3.57,3.57a1,1,0,0,0-.71.29l0,.05a1,1,0,0,0,0,1.41,1,1,0,0,0,.71.29,1,1,0,0,0,.7-.29l0,0a1,1,0,0,0,0-1.41,1,1,0,0,0-.7-.3Zm-3.58,3.58a1,1,0,0,0-.7.29l0,0a1,1,0,0,0,0,1.41,1,1,0,0,0,.7.3,1,1,0,0,0,.71-.3l0,0a1,1,0,0,0,0-1.41,1,1,0,0,0-.71-.29Zm-3.57,3.57a1,1,0,0,0-.71.29l0,0a1,1,0,0,0,0,1.42,1,1,0,0,0,.71.29,1,1,0,0,0,.71-.29l0,0a1,1,0,0,0,0-1.42,1,1,0,0,0-.7-.29Zm-3.58,3.58a1,1,0,0,0-.7.29l0,0a1,1,0,0,0,0,1.41,1,1,0,0,0,1.41,0l0,0a1,1,0,0,0,0-1.41,1,1,0,0,0-.71-.29Zm-3.57,3.57a1,1,0,0,0-.7.29l0,.05a1,1,0,0,0,0,1.41,1,1,0,0,0,1.42,0l0,0a1,1,0,0,0,0-1.42,1,1,0,0,0-.71-.29Zm-3.58,3.58a1,1,0,0,0-.7.29l0,0a1,1,0,0,0,0,1.41,1,1,0,0,0,1.41,0l0,0a1,1,0,0,0,0-1.41,1,1,0,0,0-.71-.29Zm-3.57,3.57a1,1,0,0,0-.7.29l0,0a1,1,0,0,0,0,1.41,1,1,0,0,0,1.42,0l0,0a1,1,0,0,0,0-1.42,1,1,0,0,0-.71-.29Zm-3.57,3.57a1,1,0,0,0-.71.3l0,0a1,1,0,0,0,0,1.41,1,1,0,0,0,1.41,0l0,0a1,1,0,0,0,0-1.41,1,1,0,0,0-.7-.3Zm-3.58,3.58a1,1,0,0,0-.71.29l0,0a1,1,0,0,0,0,1.41,1,1,0,0,0,.71.3,1,1,0,0,0,.71-.3l0,0a1,1,0,0,0,0-1.42,1,1,0,0,0-.71-.29Zm-3.57,3.57a1,1,0,0,0-.71.29l0,0a1,1,0,0,0,0,1.41,1,1,0,0,0,.71.29,1,1,0,0,0,.7-.29l0,0a1,1,0,0,0,0-1.41,1,1,0,0,0-.7-.3Zm-3.58,3.58a1,1,0,0,0-.71.29l0,0a1,1,0,0,0,0,1.41,1,1,0,0,0,.7.3,1,1,0,0,0,.71-.3l0,0a1,1,0,0,0,0-1.41,1,1,0,0,0-.71-.29Zm-3.57,3.57a1,1,0,0,0-.71.29l0,0a1,1,0,0,0,0,1.42,1,1,0,0,0,.71.29,1,1,0,0,0,.71-.29l0,0a1,1,0,0,0,0-1.42,1,1,0,0,0-.7-.29Zm-3.58,3.58a1,1,0,0,0-.7.28l-.05,0a1,1,0,0,0,0,1.41,1,1,0,0,0,1.41,0l0,0a1,1,0,0,0,0-1.41,1,1,0,0,0-.71-.29Zm-3.57,3.57a1,1,0,0,0-.71.29l0,0a1,1,0,0,0,0,1.42,1,1,0,0,0,1.42,0l0,0a1,1,0,0,0,0-1.42,1,1,0,0,0-.71-.29Zm-3.58,3.57a1,1,0,0,0-.7.3l0,0a1,1,0,0,0,0,1.41,1,1,0,0,0,1.41,0l0,0a1,1,0,0,0,0-1.41,1,1,0,0,0-.71-.3Zm-3.57,3.58a1,1,0,0,0-.7.29l0,.05a1,1,0,0,0,0,1.41,1,1,0,0,0,.71.29,1,1,0,0,0,.71-.29l0,0a1,1,0,0,0,0-1.42,1,1,0,0,0-.71-.29Zm-3.57,3.57a1,1,0,0,0-.71.3l0,0a1,1,0,0,0,0,1.41,1,1,0,0,0,1.41,0l0,0a1,1,0,0,0,0-1.41,1,1,0,0,0-.7-.3Zm-3.58,3.58a1,1,0,0,0-.7.29l0,0h0a1,1,0,0,0,.7,1.71,1,1,0,0,0,.71-.3l0,0a1,1,0,0,0,0-1.42,1,1,0,0,0-.71-.29Zm-3.57,3.57a1,1,0,0,0-.71.3l0,0a1,1,0,0,0,0,1.42,1,1,0,0,0,.71.29,1,1,0,0,0,.7-.29l0,0a1,1,0,0,0,0-1.41,1,1,0,0,0-.7-.3Zm-3.58,3.58a1,1,0,0,0-.7.29l0,0a1,1,0,0,0,0,1.41,1,1,0,0,0,1.41,0l0,0a1,1,0,0,0,0-1.41,1,1,0,0,0-.71-.29Zm-3.57,3.57a1,1,0,0,0-.7.29l0,.05a1,1,0,0,0,0,1.41,1,1,0,0,0,.71.29,1,1,0,0,0,.71-.29l0,0a1,1,0,0,0,0-1.42,1,1,0,0,0-.7-.29Zm-3.58,3.58a1,1,0,0,0-.7.29l0,0a1,1,0,0,0,0,1.41,1,1,0,0,0,1.41,0l0,0a1,1,0,0,0,0-1.41,1,1,0,0,0-.71-.29Zm-3.57,3.57a1,1,0,0,0-.71.29l0,0a1,1,0,0,0,0,1.42,1,1,0,0,0,1.42,0l0,0a1,1,0,0,0,0-1.42,1,1,0,0,0-.71-.29Zm-3.58,3.57a1,1,0,0,0-.7.29l0,.05a1,1,0,0,0,0,1.41,1,1,0,0,0,1.41,0l0,0a1,1,0,0,0,0-1.41,1,1,0,0,0-.71-.3ZM1114,220.2a1,1,0,0,0-.71.29l0,0a1,1,0,0,0,0,1.42,1,1,0,0,0,.71.29,1,1,0,0,0,.71-.29l0,0a1,1,0,0,0,0-1.42,1,1,0,0,0-.71-.29Zm-3.57,3.57a1,1,0,0,0-.71.3l0,0a1,1,0,0,0,0,1.41,1,1,0,0,0,1.41,0l0,0a1,1,0,0,0,0-1.41,1,1,0,0,0-.7-.3Zm-3.58,3.58a1,1,0,0,0-.7.29l-.05.05a1,1,0,0,0,0,1.4,1,1,0,0,0,.7.3,1,1,0,0,0,.71-.3l0,0a1,1,0,0,0,0-1.42,1,1,0,0,0-.71-.29Zm-3.57,3.57a1,1,0,0,0-.71.3l0,0a1,1,0,0,0,0,1.42,1,1,0,0,0,.71.29,1,1,0,0,0,.71-.29l0,0a1,1,0,0,0,0-1.41,1,1,0,0,0-.7-.3Zm-3.58,3.58a1,1,0,0,0-.7.29l0,0a1,1,0,0,0,0,1.41,1,1,0,0,0,1.41,0l0,0a1,1,0,0,0,0-1.41,1,1,0,0,0-.71-.29Zm-3.57,3.57a1,1,0,0,0-.71.29l0,0a1,1,0,0,0,0,1.42,1,1,0,0,0,.71.29,1,1,0,0,0,.71-.29l0,0a1,1,0,0,0,0-1.42,1,1,0,0,0-.71-.29Zm-3.58,3.58a1,1,0,0,0-.7.29l0,0a1,1,0,0,0,0,1.41,1,1,0,0,0,1.41,0l0,0a1,1,0,0,0,0-1.41,1,1,0,0,0-.71-.29Zm-3.57,3.57a1,1,0,0,0-.71.29l0,0a1,1,0,0,0,0,1.42,1,1,0,0,0,1.42,0l0,0a1,1,0,0,0,0-1.42,1,1,0,0,0-.71-.29Zm-3.58,3.57a1,1,0,0,0-.7.3l0,0a1,1,0,0,0,0,1.41,1,1,0,0,0,1.41,0l0,0a1,1,0,0,0,0-1.41,1,1,0,0,0-.71-.3Zm-3.57,3.58a1,1,0,0,0-.71.29l0,0a1,1,0,0,0,0,1.42,1,1,0,0,0,.71.29,1,1,0,0,0,.71-.29l0,0a1,1,0,0,0,0-1.42,1,1,0,0,0-.71-.29Zm-3.18,3.63a1,1,0,0,0-.84.46l0,0v0a1,1,0,0,0,.3,1.38,1.08,1.08,0,0,0,.54.15,1,1,0,0,0,.84-.46l0,0a1,1,0,0,0-.84-1.54Zm-1.82,4.32a1,1,0,0,0-1,.77v.05h0a1,1,0,0,0,.75,1.2l.23,0a1,1,0,0,0,1-.77v-.05a1,1,0,0,0-.75-1.2.83.83,0,0,0-.22,0Zm-.29,4.69h-.1a1,1,0,0,0-.89,1.09v0h0v0a1,1,0,0,0,1,.88h.11a1,1,0,0,0,.88-1.11v-.05a1,1,0,0,0-1-.89Zm1.28,4.52a1.11,1.11,0,0,0-.43.09,1,1,0,0,0-.47,1.34h0l0,.05a1,1,0,0,0,.9.56,1,1,0,0,0,.43-.1,1,1,0,0,0,.47-1.33l0-.05a1,1,0,0,0-.91-.56Zm2.73,3.82a1,1,0,0,0-.71.29,1,1,0,0,0,0,1.42l0,0a1,1,0,0,0,.71.29,1,1,0,0,0,.7-1.71l0,0a1,1,0,0,0-.71-.29Zm3.57,3.57a1,1,0,0,0-.7.3,1,1,0,0,0,0,1.41l0,0a1,1,0,0,0,.71.29,1,1,0,0,0,.71-.29,1,1,0,0,0,0-1.41l0,0a1,1,0,0,0-.71-.3Zm3.58,3.58a1,1,0,0,0-.71.29,1,1,0,0,0,0,1.42l0,0a1,1,0,0,0,1.41,0,1,1,0,0,0,0-1.41l0,0a1,1,0,0,0-.7-.29Zm3.57,3.57a1,1,0,0,0-.71.3,1,1,0,0,0,0,1.41l0,0a1,1,0,0,0,1.42,0,1,1,0,0,0,0-1.42l0,0a1,1,0,0,0-.71-.3Zm3.58,3.58a1,1,0,0,0-.71.29,1,1,0,0,0,0,1.41l0,0a1,1,0,0,0,1.41,0,1,1,0,0,0,0-1.41l0,0a1,1,0,0,0-.7-.29Zm3.57,3.57a1,1,0,0,0-.71.29,1,1,0,0,0,0,1.42l0,0a1,1,0,0,0,1.42,0,1,1,0,0,0,0-1.42l0,0a1,1,0,0,0-.71-.29Zm3.58,3.58a1,1,0,0,0-.71.29,1,1,0,0,0,0,1.41l0,0a1,1,0,0,0,1.41,0,1,1,0,0,0,0-1.41l0,0a1,1,0,0,0-.7-.29Zm3.57,3.57a1,1,0,0,0-.71.29,1,1,0,0,0,0,1.41l.05.05a1,1,0,0,0,.7.29,1,1,0,0,0,.71-.29,1,1,0,0,0,0-1.42l0,0a1,1,0,0,0-.71-.29Zm3.57,3.58a1,1,0,0,0-.7.29,1,1,0,0,0,0,1.41l0,0a1,1,0,0,0,.7.29,1,1,0,0,0,.71-.29,1,1,0,0,0,0-1.41l0,0a1,1,0,0,0-.71-.29Zm3.58,3.57a1,1,0,0,0-.71.29,1,1,0,0,0,0,1.42l0,0a1,1,0,0,0,.71.29,1,1,0,0,0,.7-1.71l0,0a1,1,0,0,0-.71-.29Zm3.57,3.57a1,1,0,0,0-.7.3,1,1,0,0,0,0,1.41l0,.05a1,1,0,0,0,1.41-1.42l0,0a1,1,0,0,0-.71-.3Zm3.58,3.58a1,1,0,0,0-.71.29,1,1,0,0,0,0,1.42l0,0a1,1,0,0,0,1.41,0,1,1,0,0,0,0-1.41l0,0a1,1,0,0,0-.7-.29Zm3.57,3.57a1,1,0,0,0-.71.3,1,1,0,0,0,0,1.41l0,0a1,1,0,0,0,1.42,0,1,1,0,0,0,0-1.42l0,0a1,1,0,0,0-.71-.3Zm3.58,3.58a1,1,0,0,0-.71.29,1,1,0,0,0,0,1.41h0l0,0a1,1,0,0,0,.7.29,1,1,0,0,0,.71-.3,1,1,0,0,0,0-1.41l0,0a1,1,0,0,0-.7-.29Zm3.57,3.57a1,1,0,0,0-.71.29,1,1,0,0,0,0,1.42l0,0a1,1,0,0,0,1.42,0,1,1,0,0,0,0-1.42l0,0a1,1,0,0,0-.71-.29Zm3.57,3.58a1,1,0,0,0-.7.29,1,1,0,0,0,0,1.41l0,0a1,1,0,0,0,1.41,0,1,1,0,0,0,0-1.41l0,0a1,1,0,0,0-.71-.29Zm3.58,3.57a1,1,0,0,0-.71.29,1,1,0,0,0,0,1.42l0,0a1,1,0,0,0,.71.29,1,1,0,0,0,.71-.29,1,1,0,0,0,0-1.42l0,0a1,1,0,0,0-.71-.29Zm3.57,3.58a1,1,0,0,0-.7.29,1,1,0,0,0,0,1.41l0,0a1,1,0,0,0,.7.29,1,1,0,0,0,.71-.29,1,1,0,0,0,0-1.41l0,0a1,1,0,0,0-.71-.29Zm3.58,3.57a1,1,0,0,0-.71.29,1,1,0,0,0,0,1.41l0,.05a1,1,0,0,0,.71.29,1,1,0,0,0,.7-1.71l0,0a1,1,0,0,0-.71-.29Zm3.57,3.57a1,1,0,0,0-.7,1.71l0,0a1,1,0,0,0,.71.29,1,1,0,0,0,.71-.29,1,1,0,0,0,0-1.41l0,0a1,1,0,0,0-.71-.3Zm3.58,3.58a1,1,0,0,0-.71.29,1,1,0,0,0,0,1.42l0,0a1,1,0,0,0,1.41,0,1,1,0,0,0,0-1.41l0,0a1,1,0,0,0-.7-.29Zm3.57,3.57a1,1,0,0,0-.71,1.71l0,0a1,1,0,0,0,.7.29,1,1,0,0,0,.71-.29,1,1,0,0,0,0-1.42l0,0a1,1,0,0,0-.71-.3Zm3.58,3.58a1,1,0,0,0-.71.29,1,1,0,0,0,0,1.41l0,0a1,1,0,0,0,1.41,0,1,1,0,0,0,0-1.41l0,0a1,1,0,0,0-.7-.29Zm3.57,3.57a1,1,0,0,0-.71.29,1,1,0,0,0,0,1.42l0,0a1,1,0,0,0,1.42,0,1,1,0,0,0,0-1.42l0,0a1,1,0,0,0-.71-.29Zm3.57,3.58a1,1,0,0,0-.7.29,1,1,0,0,0,0,1.41l.05.05a1,1,0,0,0,.7.28,1,1,0,0,0,.71-.29,1,1,0,0,0,0-1.41l0,0a1,1,0,0,0-.71-.29Zm3.58,3.57a1,1,0,0,0-.71.29,1,1,0,0,0,0,1.42l0,0a1,1,0,0,0,.71.29,1,1,0,0,0,.71-.29,1,1,0,0,0,0-1.42l0,0a1,1,0,0,0-.71-.29Zm3.57,3.57a1,1,0,0,0-.7.3,1,1,0,0,0,0,1.41l0,0a1,1,0,0,0,.7.29,1,1,0,0,0,.71-.29,1,1,0,0,0,0-1.41l0,0a1,1,0,0,0-.71-.3Zm3.58,3.58a1,1,0,0,0-.71.29,1,1,0,0,0,0,1.41l0,.05a1,1,0,0,0,.71.29,1,1,0,0,0,.7-1.71l0,0a1,1,0,0,0-.71-.29Zm3.57,3.57a1,1,0,0,0-.7,1.71l0,0a1,1,0,0,0,.71.29,1,1,0,0,0,.71-.29,1,1,0,0,0,0-1.41l0,0a1,1,0,0,0-.71-.3Zm3.58,3.58a1,1,0,0,0-.71.29,1,1,0,0,0,0,1.41l0,.05a1,1,0,0,0,.71.29,1,1,0,0,0,.7-.3,1,1,0,0,0,0-1.41l0,0a1,1,0,0,0-.7-.29Zm3.57,3.57a1,1,0,0,0-.71.3,1,1,0,0,0,0,1.41l0,0a1,1,0,0,0,.7.29,1,1,0,0,0,.71-.29,1,1,0,0,0,0-1.42l0,0a1,1,0,0,0-.71-.3Zm3.58,3.58a1,1,0,0,0-.71.29,1,1,0,0,0,0,1.41l0,0a1,1,0,0,0,1.41,0,1,1,0,0,0,0-1.41l0,0a1,1,0,0,0-.7-.29Zm3.57,3.57a1,1,0,0,0-.71.29,1,1,0,0,0,0,1.42l0,0a1,1,0,0,0,.7.29,1,1,0,0,0,.71-.29,1,1,0,0,0,0-1.42l0,0a1,1,0,0,0-.71-.29Zm3.57,3.58a1,1,0,0,0-.7.29,1,1,0,0,0,0,1.41l0,.05a1,1,0,0,0,.7.28,1,1,0,0,0,.71-.29,1,1,0,0,0,0-1.41l0,0a1,1,0,0,0-.71-.29Zm3.58,3.57a1,1,0,0,0-.71.29,1,1,0,0,0,0,1.42l0,0a1,1,0,0,0,.71.29,1,1,0,0,0,.7-.29,1,1,0,0,0,0-1.42l0,0a1,1,0,0,0-.71-.29Zm3.57,3.57a1,1,0,0,0-.7.3,1,1,0,0,0,0,1.41l0,0a1,1,0,0,0,.7.29,1,1,0,0,0,.71-.29,1,1,0,0,0,0-1.41l0,0a1,1,0,0,0-.71-.3Zm3.58,3.58a1,1,0,0,0-.71.29,1,1,0,0,0,0,1.41l0,0a1,1,0,0,0,.71.29,1,1,0,0,0,.7-1.71l0,0a1,1,0,0,0-.7-.29Zm3.57,3.57a1,1,0,0,0-.7,1.71l0,0a1,1,0,0,0,.71.29,1,1,0,0,0,.71-.29,1,1,0,0,0,0-1.41l0,0a1,1,0,0,0-.71-.3Zm3.58,3.58a1,1,0,0,0-.71.29,1,1,0,0,0,0,1.41l0,.05a1,1,0,0,0,.71.29,1,1,0,0,0,.7-.3,1,1,0,0,0,0-1.41l0,0a1,1,0,0,0-.7-.29Zm3.57,3.57a1,1,0,0,0-.71.3,1,1,0,0,0,0,1.41l0,0a1,1,0,0,0,.7.29,1,1,0,0,0,.71-.29,1,1,0,0,0,0-1.42l0,0a1,1,0,0,0-.71-.3Zm3.58,3.58a1,1,0,0,0-.71.29,1,1,0,0,0,0,1.41l0,0a1,1,0,0,0,1.41,0,1,1,0,0,0,0-1.41l0,0a1,1,0,0,0-.7-.29Zm3.57,3.57a1,1,0,0,0-.71.29,1,1,0,0,0,0,1.42l0,0a1,1,0,0,0,.71.29,1,1,0,0,0,.71-.29,1,1,0,0,0,0-1.42l0,0a1,1,0,0,0-.71-.29Zm3.57,3.58a1,1,0,0,0-.7.29,1,1,0,0,0,0,1.41l0,0a1,1,0,0,0,1.41,0,1,1,0,0,0,0-1.41l0,0a1,1,0,0,0-.71-.29Zm3.58,3.57a1,1,0,0,0-.71.29,1,1,0,0,0,0,1.42l0,0a1,1,0,0,0,.71.29,1,1,0,0,0,.7-.29,1,1,0,0,0,0-1.42l0,0a1,1,0,0,0-.71-.29Zm3.57,3.57a1,1,0,0,0-.7.3,1,1,0,0,0,0,1.41l.05,0a1,1,0,0,0,.7.29,1,1,0,0,0,.71-.29,1,1,0,0,0,0-1.41l0,0a1,1,0,0,0-.71-.3Zm3.58,3.58a1,1,0,0,0-.71.29,1,1,0,0,0,0,1.42l0,0h0a1,1,0,0,0,.71.29,1,1,0,0,0,.7-1.71l0,0a1,1,0,0,0-.7-.29Zm3.57,3.57a1,1,0,0,0-.71.3,1,1,0,0,0,0,1.41l0,0a1,1,0,0,0,.71.29,1,1,0,0,0,.71-.29,1,1,0,0,0,0-1.41l0,0a1,1,0,0,0-.71-.3Zm3.58,3.58a1,1,0,0,0-.71.29,1,1,0,0,0,0,1.41l0,0a1,1,0,0,0,1.41,0,1,1,0,0,0,0-1.41l0,0a1,1,0,0,0-.7-.29Zm3.57,3.57a1,1,0,0,0-.71,1.71l0,0a1,1,0,0,0,1.42,0,1,1,0,0,0,0-1.42l0,0a1,1,0,0,0-.71-.3Zm3.58,3.58a1,1,0,0,0-.71.29,1,1,0,0,0,0,1.41l0,0a1,1,0,0,0,1.41,0,1,1,0,0,0,0-1.41l0,0a1,1,0,0,0-.7-.29Zm3.57,3.57a1,1,0,0,0-.71.29,1,1,0,0,0,0,1.42l0,0a1,1,0,0,0,.71.29,1,1,0,0,0,.71-.29,1,1,0,0,0,0-1.42l0,0a1,1,0,0,0-.71-.29Zm3.57,3.58a1,1,0,0,0-.7.29,1,1,0,0,0,0,1.41l0,0a1,1,0,0,0,.7.29,1,1,0,0,0,.71-.29,1,1,0,0,0,0-1.41l0,0a1,1,0,0,0-.71-.29Zm3.58,3.57a1,1,0,0,0-.71.29,1,1,0,0,0,0,1.42h0a1,1,0,0,0,.71.29,1,1,0,0,0,.7-.29,1,1,0,0,0,0-1.42l0,0a1,1,0,0,0-.71-.29Zm3.8,2.78a1,1,0,0,0-.45,1.89h0a1,1,0,0,0,.44.1,1,1,0,0,0,.9-.56,1,1,0,0,0-.46-1.34l0,0a1,1,0,0,0-.44-.1Zm4.5,1.34a1,1,0,0,0-.12,2h.17a1,1,0,0,0,1-.88,1,1,0,0,0-.88-1.11h-.16Zm4.74-.24a.78.78,0,0,0-.22,0h0a1,1,0,0,0,.21,2,.76.76,0,0,0,.21,0h.06a1,1,0,0,0-.21-2Zm4.33-1.78a1,1,0,0,0-.53.16l0,0a1,1,0,0,0-.31,1.38,1,1,0,0,0,.84.47,1,1,0,0,0,.53-.15h0l0,0a1,1,0,0,0-.54-1.85Zm3.65-3.15a1,1,0,0,0-.71.29l0,0a1,1,0,0,0,0,1.42,1,1,0,0,0,1.42,0h0a1,1,0,0,0,0-1.42,1,1,0,0,0-.71-.29Zm3.57-3.57a1,1,0,0,0-.7.29l0,0a1,1,0,0,0,0,1.41,1,1,0,0,0,1.41,0l0,0a1,1,0,0,0,0-1.41,1,1,0,0,0-.71-.29Zm3.58-3.58a1,1,0,0,0-.71.29l0,0a1,1,0,0,0,0,1.42,1,1,0,0,0,.71.29,1,1,0,0,0,.7-.29l0,0a1,1,0,0,0-.7-1.71Zm3.57-3.57a1,1,0,0,0-.71.29l0,0a1,1,0,0,0,.7,1.71,1,1,0,0,0,.71-.3l0,0a1,1,0,0,0,0-1.41,1,1,0,0,0-.71-.29Zm3.58-3.58a1,1,0,0,0-.71.3l0,0a1,1,0,0,0,1.41,1.42l0,0a1,1,0,0,0,0-1.41,1,1,0,0,0-.7-.3Zm3.57-3.57a1,1,0,0,0-.71.29l0,0a1,1,0,0,0,0,1.41,1,1,0,0,0,.71.3,1,1,0,0,0,.71-.29l0-.05a1,1,0,0,0,0-1.41,1,1,0,0,0-.71-.29Zm3.57-3.58a1,1,0,0,0-.7.3l0,0a1,1,0,0,0,0,1.41,1,1,0,0,0,.71.29,1,1,0,0,0,.7-.29l0,0a1,1,0,0,0,0-1.41,1,1,0,0,0-.71-.3Zm3.58-3.57a1,1,0,0,0-.71.29l0,0a1,1,0,0,0,0,1.42,1,1,0,0,0,1.42,0l0,0a1,1,0,0,0,0-1.42,1,1,0,0,0-.71-.29Zm3.57-3.58a1,1,0,0,0-.7.3l0,0a1,1,0,0,0,0,1.41,1,1,0,0,0,1.41,0l0,0a1,1,0,0,0,0-1.41,1,1,0,0,0-.71-.3Zm3.58-3.57a1,1,0,0,0-.71.29l0,0a1,1,0,0,0,0,1.42,1,1,0,0,0,.71.29,1,1,0,0,0,.7-.29l0,0a1,1,0,0,0-.71-1.71Zm3.57-3.57a1,1,0,0,0-.7.29l0,0a1,1,0,0,0,0,1.41,1,1,0,0,0,1.41,0l0,0a1,1,0,0,0,0-1.41,1,1,0,0,0-.71-.29Zm3.58-3.58a1,1,0,0,0-.71.29l0,0a1,1,0,0,0,0,1.42,1,1,0,0,0,.71.29,1,1,0,0,0,.7-.29l0,0a1,1,0,0,0,0-1.42,1,1,0,0,0-.7-.29Zm3.57-3.57a1,1,0,0,0-.71.29l0,0a1,1,0,0,0,.7,1.71,1,1,0,0,0,.71-.29l0,0a1,1,0,0,0,0-1.41,1,1,0,0,0-.71-.29Zm3.58-3.58a1,1,0,0,0-.71.3l0,0a1,1,0,0,0,1.41,1.42l0,0a1,1,0,0,0,0-1.41,1,1,0,0,0-.7-.3Zm3.57-3.57a1,1,0,0,0-.71.29l0,0a1,1,0,0,0,0,1.41,1,1,0,0,0,.71.3,1,1,0,0,0,.71-.29l0-.05a1,1,0,0,0,0-1.41,1,1,0,0,0-.71-.29Zm3.57-3.58a1,1,0,0,0-.7.3l0,0a1,1,0,0,0,0,1.41,1,1,0,0,0,1.41,0l0,0a1,1,0,0,0,0-1.41,1,1,0,0,0-.71-.3Zm3.58-3.57a1,1,0,0,0-.71.29l0,0a1,1,0,0,0,0,1.42,1,1,0,0,0,1.42,0l0,0a1,1,0,0,0,0-1.42,1,1,0,0,0-.71-.29Zm3.57-3.58a1,1,0,0,0-.7.3l0,0a1,1,0,0,0,0,1.41,1,1,0,0,0,.7.29,1,1,0,0,0,.71-.29l0,0a1,1,0,0,0,0-1.41,1,1,0,0,0-.71-.3Zm3.58-3.57a1,1,0,0,0-.71.29l0,0a1,1,0,0,0,0,1.42,1,1,0,0,0,.71.29,1,1,0,0,0,.7-.29l0-.05a1,1,0,0,0-.71-1.7Zm3.57-3.57a1,1,0,0,0-.71.29l0,0a1,1,0,0,0,0,1.41,1,1,0,0,0,1.41,0l0,0a1,1,0,0,0,0-1.41,1,1,0,0,0-.71-.29Zm3.58-3.58a1,1,0,0,0-.71.29l0,0a1,1,0,0,0,0,1.42,1,1,0,0,0,.71.29,1,1,0,0,0,.7-.29l0,0a1,1,0,0,0,0-1.42,1,1,0,0,0-.7-.29Zm3.57-3.57a1,1,0,0,0-.71.29l0,0a1,1,0,0,0,0,1.41,1,1,0,0,0,.71.3,1,1,0,0,0,.71-.3l0,0a1,1,0,0,0,0-1.41,1,1,0,0,0-.71-.29Zm3.58-3.58a1,1,0,0,0-.71.3l0,0a1,1,0,0,0,.71,1.71,1,1,0,0,0,.7-.29l0,0,0,0a1,1,0,0,0,0-1.41,1,1,0,0,0-.7-.3Zm3.57-3.57a1,1,0,0,0-.71.29l0,0a1,1,0,0,0,.71,1.71,1,1,0,0,0,.7-.29l0,0a1,1,0,0,0,0-1.41,1,1,0,0,0-.71-.29Zm3.57-3.58a1,1,0,0,0-.7.3l0,0a1,1,0,0,0,0,1.41,1,1,0,0,0,1.41,0l0,0a1,1,0,0,0,0-1.41,1,1,0,0,0-.71-.3Zm3.58-3.57a1,1,0,0,0-.71.29l0,0a1,1,0,0,0,0,1.42,1,1,0,0,0,.71.29,1,1,0,0,0,.7-.29l0-.05a1,1,0,0,0,0-1.41,1,1,0,0,0-.71-.29Zm3.57-3.57a1,1,0,0,0-.7.29l0,0a1,1,0,0,0,0,1.41,1,1,0,0,0,.7.29,1,1,0,0,0,.71-.28l0-.05a1,1,0,0,0,0-1.41,1,1,0,0,0-.71-.29Zm3.58-3.58a1,1,0,0,0-.71.29l0,0a1,1,0,0,0,0,1.42,1,1,0,0,0,.71.29,1,1,0,0,0,.71-.29l0,0a1,1,0,0,0,0-1.42,1,1,0,0,0-.7-.29Zm3.57-3.57a1,1,0,0,0-.71.29l0,0a1,1,0,0,0,0,1.41,1,1,0,0,0,.7.3,1,1,0,0,0,.71-.29l0,0a1,1,0,0,0,0-1.41,1,1,0,0,0-.71-.29Zm3.58-3.58a1,1,0,0,0-.71.29l0,0a1,1,0,0,0,0,1.42,1,1,0,0,0,.71.29,1,1,0,0,0,.7-.29l0-.05a1,1,0,0,0-.71-1.7Zm3.57-3.57a1,1,0,0,0-.71.29l0,0a1,1,0,0,0,0,1.41,1,1,0,0,0,.71.3,1,1,0,0,0,.71-.3l0,0a1,1,0,0,0,0-1.41,1,1,0,0,0-.71-.29Zm3.58-3.58a1,1,0,0,0-.71.3l0,0a1,1,0,0,0,.71,1.71,1,1,0,0,0,.7-.29l0,0a1,1,0,0,0,0-1.41,1,1,0,0,0-.7-.3Zm3.57-3.57a1,1,0,0,0-.71.29l0,0a1,1,0,1,0,1.42,1.41l0,0a1,1,0,0,0,0-1.42,1,1,0,0,0-.71-.29Zm3.57-3.58a1,1,0,0,0-.7.3l0,0a1,1,0,0,0,0,1.41,1,1,0,0,0,1.41,0l0,0a1,1,0,0,0,0-1.41,1,1,0,0,0-.71-.3Zm3.58-3.57a1,1,0,0,0-.71.29l0,0a1,1,0,0,0,0,1.42,1,1,0,0,0,.71.29,1,1,0,0,0,.7-.29l.05-.05a1,1,0,0,0,0-1.41,1,1,0,0,0-.71-.29Zm3.57-3.57a1,1,0,0,0-.7.29l0,0a1,1,0,0,0,0,1.41,1,1,0,0,0,1.41,0l0,0a1,1,0,0,0,0-1.41,1,1,0,0,0-.71-.29Zm3.58-3.58a1,1,0,0,0-.71.29l0,0a1,1,0,0,0,0,1.42,1,1,0,0,0,.71.29,1,1,0,0,0,.71-.29l0,0a1,1,0,0,0-.7-1.71Zm3.57-3.57a1,1,0,0,0-.71.29l0,0a1,1,0,0,0,0,1.41,1,1,0,0,0,.7.3,1,1,0,0,0,.7-.29l.05-.05a1,1,0,0,0,0-1.41,1,1,0,0,0-.71-.29Zm3.58-3.58a1,1,0,0,0-.71.29l0,0a1,1,0,0,0,0,1.42,1,1,0,0,0,.71.29,1,1,0,0,0,.7-.29l0,0a1,1,0,0,0-.7-1.71Zm3.57-3.57a1,1,0,0,0-.71.29l0,0a1,1,0,0,0,0,1.41,1,1,0,0,0,.71.3,1,1,0,0,0,.71-.3l0,0a1,1,0,0,0,0-1.41,1,1,0,0,0-.71-.29Zm3.57-3.58a1,1,0,0,0-.7.3l0,0a1,1,0,0,0,0,1.41,1,1,0,0,0,.71.29,1,1,0,0,0,.7-.29l0,0a1,1,0,0,0,0-1.41,1,1,0,0,0-.71-.3Zm3.58-3.57a1,1,0,0,0-.71.29l0,0a1,1,0,1,0,1.42,1.41l0,0a1,1,0,0,0,0-1.42,1,1,0,0,0-.71-.29Zm3.57-3.58a1,1,0,0,0-.7.3l0,0a1,1,0,0,0,0,1.41,1,1,0,0,0,1.41,0l0,0a1,1,0,0,0,0-1.41,1,1,0,0,0-.71-.3Zm3.58-3.57a1,1,0,0,0-.71.29l0,0a1,1,0,0,0,0,1.42,1,1,0,0,0,1.42,0l0,0a1,1,0,0,0,0-1.42,1,1,0,0,0-.71-.29Zm3.57-3.57a1,1,0,0,0-.7.29l0,0a1,1,0,0,0,0,1.41,1,1,0,0,0,1.41,0l0,0a1,1,0,0,0,0-1.41,1,1,0,0,0-.71-.29Zm3.58-3.58a1,1,0,0,0-.71.29l0,0a1,1,0,0,0,0,1.42,1,1,0,0,0,.71.29,1,1,0,0,0,.71-.29l0,0a1,1,0,0,0-.7-1.71Zm3.57-3.57a1,1,0,0,0-.71.29l0,0a1,1,0,0,0,.7,1.71,1,1,0,0,0,.71-.3l0,0a1,1,0,0,0,0-1.41,1,1,0,0,0-.71-.29Zm3.58-3.58a1,1,0,0,0-.71.3l0,0a1,1,0,0,0,0,1.42,1,1,0,0,0,.71.29,1,1,0,0,0,.7-.29l0,0a1,1,0,0,0,0-1.41,1,1,0,0,0-.7-.3Zm3.57-3.57a1,1,0,0,0-.71.29l0,0a1,1,0,0,0,0,1.41,1,1,0,0,0,.71.3,1,1,0,0,0,.71-.3l0,0a1,1,0,0,0,0-1.41,1,1,0,0,0-.71-.29Zm3.57-3.58a1,1,0,0,0-.7.3l0,0a1,1,0,0,0,0,1.41,1,1,0,0,0,1.41,0l0,0a1,1,0,0,0,0-1.41,1,1,0,0,0-.71-.3Zm3.58-3.57a1,1,0,0,0-.71.29l0,0a1,1,0,1,0,1.42,1.41l0,0a1,1,0,0,0,0-1.42,1,1,0,0,0-.71-.29Zm3.57-3.58a1,1,0,0,0-.7.3l0,0a1,1,0,0,0,0,1.41,1,1,0,0,0,.7.29,1,1,0,0,0,.71-.28l0-.05h0a1,1,0,0,0,0-1.41,1,1,0,0,0-.71-.3Zm3.46-3.54a1,1,0,0,0-.77.36l0,0a1,1,0,0,0,.13,1.41,1,1,0,0,0,1.4-.12l0-.06a1,1,0,0,0-.14-1.4,1,1,0,0,0-.64-.22Zm2.33-4.08a1,1,0,0,0-1,.66v0a1,1,0,0,0,.6,1.29,1,1,0,0,0,.34.06,1,1,0,0,0,.94-.66v0h0v0a1,1,0,0,0-.6-1.27,1.06,1.06,0,0,0-.34-.06Zm.82-4.62a1,1,0,0,0-1,1v.05a1,1,0,0,0,1,1h0a1,1,0,0,0,1-1v-.06a1,1,0,0,0-1-1Zm-.74-4.64a1.19,1.19,0,0,0-.32.05,1,1,0,0,0-.63,1.27l0,.05a1,1,0,0,0,.95.68,1.25,1.25,0,0,0,.32-.05,1,1,0,0,0,.62-1.27h0l0,0a1,1,0,0,0-.94-.67Zm-2.25-4.12a1,1,0,0,0-.78,1.63l0,0a1,1,0,0,0,.79.38,1.05,1.05,0,0,0,.62-.21,1,1,0,0,0,.16-1.4v0h0a1,1,0,0,0-.79-.38Zm-3.42-3.55a1,1,0,0,0-.71,1.71l0,0a1,1,0,1,0,1.41-1.42l0,0a1,1,0,0,0-.7-.29Zm-3.58-3.58a1,1,0,0,0-.7,1.71l0,0a1,1,0,0,0,.71.29,1,1,0,0,0,.71-.29,1,1,0,0,0,0-1.41l0,0a1,1,0,0,0-.71-.3Zm-3.57-3.57a1,1,0,0,0-.71.29,1,1,0,0,0,0,1.42l0,0a1,1,0,0,0,.71.29,1,1,0,0,0,.7-1.71l0,0a1,1,0,0,0-.71-.29Zm-3.58-3.57a1,1,0,0,0-.7.29,1,1,0,0,0,0,1.41l0,0a1,1,0,0,0,.7.29,1,1,0,0,0,.71-.29,1,1,0,0,0,0-1.41l0,0a1,1,0,0,0-.71-.29Zm-3.57-3.58a1,1,0,0,0-.71.29,1,1,0,0,0,0,1.42l0,0a1,1,0,0,0,.71.29,1,1,0,0,0,.71-.29,1,1,0,0,0,0-1.42l0,0a1,1,0,0,0-.71-.29Zm-3.58-3.57a1,1,0,0,0-.7.29,1,1,0,0,0,0,1.41l0,0a1,1,0,0,0,1.41,0,1,1,0,0,0,0-1.41l0,0a1,1,0,0,0-.71-.29Zm-3.57-3.58a1,1,0,0,0-.71,1.71l0,0a1,1,0,0,0,1.42,0,1,1,0,0,0,0-1.42l0,0a1,1,0,0,0-.71-.3Zm-3.57-3.57a1,1,0,0,0-.71,1.71l0,0a1,1,0,0,0,1.41,0,1,1,0,0,0,0-1.41l0,0a1,1,0,0,0-.7-.29Zm-3.58-3.58a1,1,0,0,0-.71.3,1,1,0,0,0,0,1.41l0,0a1,1,0,0,0,1.42,0,1,1,0,0,0,0-1.41l0,0a1,1,0,0,0-.71-.3Zm-3.57-3.57a1,1,0,0,0-.71.29,1,1,0,0,0,0,1.42l0,0a1,1,0,1,0,1.41-1.42l0,0a1,1,0,0,0-.7-.29Zm-3.58-3.57a1,1,0,0,0-.7.29,1,1,0,0,0,0,1.41l0,0a1,1,0,0,0,.71.29,1,1,0,0,0,.71-.29,1,1,0,0,0,0-1.41l0,0h0a1,1,0,0,0-.71-.29Zm-3.57-3.58a1,1,0,0,0-.71.29,1,1,0,0,0,0,1.42l0,0a1,1,0,0,0,.71.29,1,1,0,0,0,.7-1.71l0,0a1,1,0,0,0-.71-.29Zm-3.58-3.57a1,1,0,0,0-.7.29,1,1,0,0,0,0,1.41l0,0a1,1,0,0,0,.7.3,1,1,0,0,0,.71-1.71l0,0a1,1,0,0,0-.71-.29Zm-3.57-3.58a1,1,0,0,0-.71.29,1,1,0,0,0,0,1.42l0,0a1,1,0,0,0,.71.29,1,1,0,0,0,.71-.29,1,1,0,0,0,0-1.41l0-.05a1,1,0,0,0-.7-.29Zm-3.58-3.57a1,1,0,0,0-.7,1.7l0,0a1,1,0,0,0,1.41,0,1,1,0,0,0,0-1.41l0,0a1,1,0,0,0-.71-.29Zm-3.57-3.58a1,1,0,0,0-.71,1.71l0,0a1,1,0,0,0,1.42,0,1,1,0,0,0,0-1.42l0,0a1,1,0,0,0-.71-.3Zm-3.57-3.57a1,1,0,0,0-.71,1.71l0,0a1,1,0,0,0,1.41,0,1,1,0,0,0,0-1.4l0-.05a1,1,0,0,0-.7-.29Zm-3.58-3.58a1,1,0,0,0-.71.3,1,1,0,0,0,0,1.41l0,0a1,1,0,0,0,1.42,0,1,1,0,0,0,0-1.41l0,0a1,1,0,0,0-.71-.3Zm-3.57-3.57a1,1,0,0,0-.71.29,1,1,0,0,0,0,1.42l0,0a1,1,0,0,0,1.41-1.42l0,0a1,1,0,0,0-.7-.29Zm-3.58-3.57a1,1,0,0,0-.7.29,1,1,0,0,0,0,1.41l0,0a1,1,0,0,0,.71.29,1,1,0,0,0,.71-.29,1,1,0,0,0,0-1.41l0-.05a1,1,0,0,0-.71-.28Zm-3.57-3.58a1,1,0,0,0-.71.29,1,1,0,0,0,0,1.42l0,0a1,1,0,0,0,.71.29,1,1,0,0,0,.7-1.71l0,0a1,1,0,0,0-.71-.29Zm-3.58-3.57a1,1,0,0,0-.7.29,1,1,0,0,0,0,1.41l0,0a1,1,0,0,0,.7.3,1,1,0,0,0,.71-1.71l0,0,0,0a1,1,0,0,0-.71-.29Zm-3.57-3.58a1,1,0,0,0-.71.29,1,1,0,0,0,0,1.42l0,0a1,1,0,0,0,.71.29,1,1,0,0,0,.71-.29,1,1,0,0,0,0-1.41l0-.05a1,1,0,0,0-.7-.29Zm-3.57-3.57a1,1,0,0,0-.71.29,1,1,0,0,0,0,1.41l0,0a1,1,0,0,0,1.41,0,1,1,0,0,0,0-1.41l0,0a1,1,0,0,0-.7-.29Zm-3.58-3.58a1,1,0,0,0-.71,1.71l0,0a1,1,0,0,0,1.42,0,1,1,0,0,0,0-1.41l0-.05a1,1,0,0,0-.7-.29Zm-3.57-3.57a1,1,0,0,0-.71,1.71l0,0a1,1,0,0,0,1.41,0,1,1,0,0,0,0-1.41l0,0a1,1,0,0,0-.7-.29Zm-3.58-3.58a1,1,0,0,0-.71.3,1,1,0,0,0,0,1.41l0,0a1,1,0,0,0,1.42,0,1,1,0,0,0,0-1.41l0,0a1,1,0,0,0-.71-.3Zm-3.57-3.57a1,1,0,0,0-.71.29,1,1,0,0,0,0,1.42l0,0a1,1,0,0,0,1.42-1.41l-.05-.05a1,1,0,0,0-.7-.29Zm-3.58-3.57a1,1,0,0,0-.7.29,1,1,0,0,0,0,1.41l0,0a1,1,0,0,0,.71.29,1,1,0,0,0,.71-.29,1,1,0,0,0,0-1.41l0,0,0,0a1,1,0,0,0-.71-.28Zm-3.57-3.58a1,1,0,0,0-.71.29,1,1,0,0,0,0,1.42l0,0a1,1,0,0,0,.71.29,1,1,0,0,0,.7-.29,1,1,0,0,0,0-1.42l0,0a1,1,0,0,0-.71-.29Zm-3.58-3.57a1,1,0,0,0-.7.29,1,1,0,0,0,0,1.41l0,0a1,1,0,0,0,.7.3,1,1,0,0,0,.71-1.71l0,0a1,1,0,0,0-.71-.29Zm-3.57-3.58a1,1,0,0,0-.71,1.71l0,0a1,1,0,0,0,.71.29,1,1,0,0,0,.71-.29,1,1,0,0,0,0-1.42l0,0a1,1,0,0,0-.71-.3Zm-3.57-3.57a1,1,0,0,0-.71.29,1,1,0,0,0,0,1.41l0,0a1,1,0,0,0,1.41,0,1,1,0,0,0,0-1.41h0l0,0a1,1,0,0,0-.7-.29Zm-3.58-3.58a1,1,0,0,0-.71,1.71l0,0a1,1,0,0,0,1.42,0,1,1,0,0,0,0-1.41l0,0a1,1,0,0,0-.7-.29Zm-3.57-3.57a1,1,0,0,0-.71,1.71l0,0a1,1,0,0,0,1.41,0,1,1,0,0,0,0-1.41l0,0a1,1,0,0,0-.7-.29Zm-3.58-3.58a1,1,0,0,0-.71.3,1,1,0,0,0,0,1.41l0,0a1,1,0,0,0,1.42,0,1,1,0,0,0,0-1.41l0,0a1,1,0,0,0-.71-.29Zm-3.57-3.57a1,1,0,0,0-.71.29,1,1,0,0,0,0,1.42l0,0a1,1,0,0,0,1.41,0,1,1,0,0,0,0-1.42l0,0a1,1,0,0,0-.7-.29Zm-3.58-3.57a1,1,0,0,0-.7.29,1,1,0,0,0,0,1.41l0,0a1,1,0,0,0,.71.29,1,1,0,0,0,.71-.29,1,1,0,0,0,0-1.41l0,0a1,1,0,0,0-.71-.29Zm-3.57-3.58a1,1,0,0,0-.71.29,1,1,0,0,0,0,1.42l0,0a1,1,0,0,0,.71.29,1,1,0,0,0,.71-1.7l0,0a1,1,0,0,0-.7-.29Zm-3.58-3.57a1,1,0,0,0-.7.29,1,1,0,0,0,0,1.41l0,0a1,1,0,0,0,1.41,0,1,1,0,0,0,0-1.41l0,0a1,1,0,0,0-.71-.29Zm-3.57-3.58a1,1,0,0,0-.71,1.71l0,0a1,1,0,0,0,.71.29,1,1,0,0,0,.71-.29,1,1,0,0,0,0-1.42l0,0a1,1,0,0,0-.71-.3Zm-3.57-3.57a1,1,0,0,0-.71,1.71l0,0a1,1,0,0,0,1.41,0,1,1,0,0,0,0-1.41l0,0a1,1,0,0,0-.7-.29Zm-3.58-3.58a1,1,0,0,0-.71.3,1,1,0,0,0,0,1.41l0,0a1,1,0,0,0,1.42,0,1,1,0,0,0,0-1.41l0,0a1,1,0,0,0-.71-.29Zm-3.57-3.57a1,1,0,0,0-.71,1.71l0,0A1,1,0,0,0,1317,98h0l0,0a1,1,0,0,0-.7-.29ZM1312.63,94a1,1,0,0,0-.7,1.71l0,0a1,1,0,0,0,.71.29,1,1,0,0,0,.71-.29,1,1,0,0,0,0-1.41l0,0a1,1,0,0,0-.71-.3Zm-3.57-3.57a1,1,0,0,0-.71.29,1,1,0,0,0,0,1.42l0,0a1,1,0,0,0,1.41-1.42l0,0a1,1,0,0,0-.7-.29Zm-3.58-3.57a1,1,0,0,0-.7.29,1,1,0,0,0,0,1.41l0,0a1,1,0,0,0,.7.29,1,1,0,0,0,.71-.29,1,1,0,0,0,0-1.41l0,0a1,1,0,0,0-.71-.29Zm-3.57-3.58a1,1,0,0,0-.71.29,1,1,0,0,0,0,1.42l0,0a1,1,0,0,0,.71.29,1,1,0,0,0,.71-1.71l0,0a1,1,0,0,0-.71-.29Zm-3.58-3.57a1,1,0,0,0-.7.29,1,1,0,0,0,0,1.41l0,0a1,1,0,0,0,1.41,0,1,1,0,0,0,0-1.41l0,0a1,1,0,0,0-.71-.29Zm-3.57-3.58a1,1,0,0,0-.71,1.71l0,0a1,1,0,0,0,.71.29,1,1,0,0,0,.71-.29,1,1,0,0,0,0-1.42l0,0a1,1,0,0,0-.71-.3Zm-3.57-3.57a1,1,0,0,0-.71,1.71l0,0a1,1,0,0,0,1.41,0,1,1,0,0,0,0-1.41l0,0a1,1,0,0,0-.7-.29ZM1287.61,69a1,1,0,0,0-.71.3,1,1,0,0,0,0,1.41l0,0a1,1,0,0,0,1.42,0,1,1,0,0,0,0-1.41h0a1,1,0,0,0-.71-.3ZM1284,65.81a1,1,0,0,0-.84.46,1,1,0,0,0,.29,1.38l0,0a1,1,0,0,0,1.11-1.67h0l0,0a1,1,0,0,0-.55-.17ZM1279.68,64a1,1,0,0,0-.23,2h0l.23,0a1,1,0,0,0,1-.77A1,1,0,0,0,1280,64h-.06a.85.85,0,0,0-.23,0Z" transform="translate(1735.6 842.88)"/><g class="cls-3"><rect x="1633.03" y="635.72" width="128.12" height="128.12" rx="6.51" transform="translate(1737.84 2247.86) rotate(-45)"/></g><rect class="cls-9" x="1628.95" y="633.28" width="128.12" height="128.12" rx="6.51" transform="translate(1738.38 2244.26) rotate(-45)"/><g class="cls-3"><circle cx="1188.69" cy="454.04" r="19.92" transform="translate(1652.33 1332.33) rotate(-22.5)"/></g><circle class="cls-11" cx="1186.29" cy="452.6" r="19.92" transform="translate(1763.02 1814.28) rotate(-45)"/><g class="cls-3"><path d="M1729.19,581a6.16,6.16,0,1,1-6.16-6.15A6.16,6.16,0,0,1,1729.19,581Z" transform="translate(1735.6 842.88)"/></g><path class="cls-7" d="M1728.45,580.6a6.16,6.16,0,1,1-6.16-6.15A6.15,6.15,0,0,1,1728.45,580.6Z" transform="translate(1735.6 842.88)"/><g class="cls-3"><path d="M684.73,56.38a2.83,2.83,0,1,1-2.83,2.83,2.83,2.83,0,0,1,2.83-2.83m0-6.41A9.24,9.24,0,1,0,694,59.21,9.24,9.24,0,0,0,684.73,50Z" transform="translate(1735.6 842.88)"/></g><path class="cls-10" d="M683.62,55.71a2.83,2.83,0,1,1-2.83,2.83,2.83,2.83,0,0,1,2.83-2.83m0-6.4a9.23,9.23,0,1,0,9.23,9.23,9.24,9.24,0,0,0-9.23-9.23Z" transform="translate(1735.6 842.88)"/><g class="cls-3"><rect x="-694.03" y="464.29" width="157.15" height="157.15" rx="7.98" transform="translate(1171.47 566.69) rotate(-45)"/></g><rect class="cls-7" x="-699.03" y="461.29" width="157.15" height="157.15" rx="7.98" transform="translate(1172.13 562.28) rotate(-45)"/><g class="cls-3"><rect x="-64.91" y="855.63" width="128.12" height="128.12" rx="6.51" transform="translate(1085.04 1111.65) rotate(-45)"/></g><rect class="cls-6" x="-68.98" y="853.18" width="128.12" height="128.12" rx="6.51" transform="translate(1085.57 1108.05) rotate(-45)"/><g class="cls-3"><path d="M118.27,765.22l74.26,74.26-74.26,74.26L44,839.48l74.26-74.26m0-6.57A5.92,5.92,0,0,0,114,760.4L39.18,835.25a6,6,0,0,0,0,8.46L114,918.57a6,6,0,0,0,8.46,0l74.85-74.86a6,6,0,0,0,0-8.46L122.5,760.4a6,6,0,0,0-4.23-1.75Z" transform="translate(1735.6 842.88)"/></g><path class="cls-10" d="M114.52,763l74.26,74.26-74.26,74.26L40.26,837.23,114.52,763m0-6.57a6,6,0,0,0-4.23,1.75L35.43,833a6,6,0,0,0,0,8.46l74.86,74.86a6,6,0,0,0,8.46,0l74.85-74.86a6,6,0,0,0,0-8.46l-74.85-74.85a6,6,0,0,0-4.23-1.75Z" transform="translate(1735.6 842.88)"/><line class="cls-12" x1="1207.36" y1="1734.22" x2="1034.81" y2="1913.06"/><line class="cls-2" x1="1147.3" y1="1674.15" x2="974.74" y2="1853"/><g class="cls-3"><rect x="-1146.83" y="-247.59" width="128.12" height="128.12" rx="6.51" transform="translate(1548.24 23.49) rotate(-45)"/></g><rect class="cls-7" x="-1150.9" y="-250.04" width="128.12" height="128.12" rx="6.51" transform="translate(1548.78 19.89) rotate(-45)"/><g class="cls-3"><rect x="-903.59" y="-534.75" width="95.09" height="95.09" rx="4.83" transform="translate(1829.37 94.87) rotate(-45)"/></g><rect class="cls-11" x="-906.61" y="-536.56" width="95.09" height="95.09" rx="4.83" transform="translate(1829.77 92.2) rotate(-45)"/><g class="cls-3"><path d="M-1622.79-526.76l99,99-99,99.05-99-99.05,99-99m0-8.77a8,8,0,0,0-5.64,2.33l-99.84,99.84a8,8,0,0,0,0,11.29l99.84,99.83a7.91,7.91,0,0,0,5.64,2.33,7.91,7.91,0,0,0,5.64-2.33l99.84-99.83a8,8,0,0,0,0-11.29l-99.84-99.84a8,8,0,0,0-5.64-2.33Z" transform="translate(1735.6 842.88)"/></g><path class="cls-10" d="M-1627.79-529.76l99,99-99,99.05-99-99.05,99-99m0-8.77a8,8,0,0,0-5.64,2.33l-99.84,99.84a8,8,0,0,0,0,11.29l99.84,99.83a7.91,7.91,0,0,0,5.64,2.33,7.91,7.91,0,0,0,5.64-2.33l99.84-99.83a8,8,0,0,0,0-11.29l-99.84-99.84a8,8,0,0,0-5.64-2.33Z" transform="translate(1735.6 842.88)"/><line class="cls-2" x1="513.6" y1="803.48" x2="686.16" y2="624.64"/><line class="cls-2" x1="573.67" y1="863.55" x2="746.22" y2="684.7"/><line class="cls-2" x1="802.19" y1="409.16" x2="974.74" y2="230.31"/><line class="cls-2" x1="862.25" y1="469.22" x2="1034.81" y2="290.38"/><line class="cls-8" x1="777.28" y1="61.11" x2="604.72" y2="239.95"/><line class="cls-8" x1="717.21" y1="1.04" x2="544.66" y2="179.89"/><rect class="cls-13" x="1735.6" y="842.88" width="750" height="500"/></g></g></svg>