<svg id="Layer_1" data-name="Layer 1" xmlns="http://www.w3.org/2000/svg" xmlns:xlink="http://www.w3.org/1999/xlink" viewBox="0 0 231.22 783.69"><defs><style>.cls-1{fill:none;}.cls-2{clip-path:url(#clip-path);}.cls-3{fill:url(#radial-gradient);}.cls-4{fill:url(#radial-gradient-2);}.cls-5{fill:url(#radial-gradient-3);}.cls-6{fill:url(#radial-gradient-4);}.cls-7{fill:url(#radial-gradient-5);}.cls-8{fill:url(#radial-gradient-6);}.cls-9{fill:url(#radial-gradient-7);}.cls-10{fill:url(#radial-gradient-8);}.cls-11{fill:url(#radial-gradient-9);}.cls-12{fill:url(#radial-gradient-10);}</style><clipPath id="clip-path" transform="translate(-227.73 238.13)"><rect class="cls-1" x="188.15" y="-215.88" width="288" height="561.6"/></clipPath><radialGradient id="radial-gradient" cx="188.93" cy="51.18" r="244.6" gradientTransform="translate(267.23 397.07) rotate(-90)" gradientUnits="userSpaceOnUse"><stop offset="0.2" stop-color="#9c9c9c"/><stop offset="0.24" stop-color="#8c8c8c"/><stop offset="0.36" stop-color="#626262"/><stop offset="0.49" stop-color="#3e3e3e"/><stop offset="0.61" stop-color="#232323"/><stop offset="0.74" stop-color="#101010"/><stop offset="0.87" stop-color="#040404"/><stop offset="1"/></radialGradient><radialGradient id="radial-gradient-2" cx="-77.79" cy="3021.45" r="193.61" gradientTransform="matrix(0, -1, -1, 0, 459.65, 197.23)" xlink:href="#radial-gradient"/><radialGradient id="radial-gradient-3" cx="-50.75" cy="3010.88" r="200.71" gradientTransform="matrix(0, -1, -1, 0, 459.65, 197.23)" xlink:href="#radial-gradient"/><radialGradient id="radial-gradient-4" cx="84.79" cy="2970.34" r="155.49" gradientTransform="matrix(0, -1, -1, 0, 459.65, 197.23)" xlink:href="#radial-gradient"/><radialGradient id="radial-gradient-5" cx="9.31" cy="3040.91" r="153.49" gradientTransform="matrix(0, -1, -1, 0, 459.65, 197.23)" xlink:href="#radial-gradient"/><radialGradient id="radial-gradient-6" cx="156.6" cy="188.67" r="136.45" gradientTransform="matrix(0, -1, -1, 0, 459.65, 197.23)" gradientUnits="userSpaceOnUse"><stop offset="0.36" stop-color="#d1d1d1"/><stop offset="0.48" stop-color="#aeaeae"/><stop offset="0.76" stop-color="#555"/><stop offset="1"/></radialGradient><radialGradient id="radial-gradient-7" cx="79.17" cy="171.37" r="172.08" xlink:href="#radial-gradient-6"/><radialGradient id="radial-gradient-8" cx="103.24" cy="162.02" r="178.43" xlink:href="#radial-gradient-6"/><radialGradient id="radial-gradient-9" cx="338.47" cy="85.59" r="217.43" gradientTransform="translate(267.23 397.07) rotate(-90)" xlink:href="#radial-gradient-6"/><radialGradient id="radial-gradient-10" cx="223.7" cy="125.94" r="138.21" xlink:href="#radial-gradient-6"/></defs><g id="Layer_1-2" data-name="Layer 1"><g class="cls-2"><path class="cls-3" d="M373.82-125.68a2.54,2.54,0,0,0-2.47,2.61,2.54,2.54,0,0,0,1.91,2.39v22.4L363.15-88.17v66L352.81-11.83V83L365.4,95.61v.66h.65l6.23,6.22v214.3L338.67,350.4V245.2l-18.88-18.87V79L302.73,61.89V-16.72L312-26a2.53,2.53,0,0,0,3.5-.8,2.53,2.53,0,0,0-.8-3.5,2.53,2.53,0,0,0-3.5.8,2.53,2.53,0,0,0,0,2.7l-9.64,9.65V62.36l17.07,17.07V226.8l18.87,18.87v104.9h1l-13.91,13.91V262.57L303.06,241V91.84l-17.6-17.6V73.8H285l-6.22-6.22V-61.67a2.54,2.54,0,0,0,1.91-3,2.54,2.54,0,0,0-3-1.91,2.54,2.54,0,0,0-1.91,3,2.55,2.55,0,0,0,1.91,1.91v49l-.2-.2-24,24V69.41L242.07,80.72V190.18l13.24,13.25v18.43l30.28,30.26.73-.73v31.42l15.57,15.57V426.79L283,407.85V325.92a2.54,2.54,0,1,0-1.12,0v82.39l20.06,20.07V469L269.47,436.6V269.46l-38.64-38.64V59.05a2.54,2.54,0,1,0-1.12,0V231.29L241.38,243V354.4l26.23,26.22.73-.73v57.18l50.05,50,.8-.79-16.83-16.83H303V297.92l-15.57-15.58V203.27l-21-21V125.21a2.54,2.54,0,1,0-1.13,0v57.51l21,21v47.55l-29.88-29.88V203l-13.29-13.25V81.23l11.34-11.35V11.59L277.6-11.52V68.05l6.7,6.67v89.4l17.47,17.46.12-.12v60L323.46,263V365.61l-4.2,4.2V537a2.54,2.54,0,1,0,1.07,0V370.27l53-53V102l-6.88-6.88V28.21L387.56,7.09V-78.72l17.63-17.64a2.53,2.53,0,0,0,3.5-.79,2.53,2.53,0,0,0-.79-3.5,2.53,2.53,0,0,0-3.5.79,2.55,2.55,0,0,0,0,2.71l-18,18V6.63l-21,21.09V94L353.94,82.56V-11.33l10.33-10.33v-66l10.11-10.11v-22.85a2.54,2.54,0,0,0,1.83-3.09,2.54,2.54,0,0,0-2.39-1.91ZM268.34,269.93V379.72l-25.83-25.79V244.09ZM301.89,92.31v87.81l-16.47-16.46V75.83Z" transform="translate(-227.73 238.13)"/><path class="cls-4" d="M351,540.55V390.72l59.3-59.3V91.84L426.5,75.67V10.37l2-2a2.55,2.55,0,1,1,.8.79l-1.68,1.68v65.3L411.45,92.31V331.93l-59.3,59.31V540.55a2.52,2.52,0,1,1-1.13,0Z" transform="translate(-227.73 238.13)"/><path class="cls-5" d="M411.15-16.72v83L397.07,80.36V320l-58.72,58.71V523.18a2.54,2.54,0,1,1-1.07,0v-145L396,319.47V79.86l14.08-14.08v-83l11.07-11.12a2.53,2.53,0,0,1,.8-3.5,2.53,2.53,0,0,1,3.5.8,2.54,2.54,0,0,1-.36,3.15,2.56,2.56,0,0,1-3.15.35Z" transform="translate(-227.73 238.13)"/><path class="cls-6" d="M355.9-102.49a2.53,2.53,0,0,1-3.14.35l-5.45,5.45v71.55l-22.8,22.8v64l16.4,16.4V197.13l15.72,15.72V331.72h-1.12V213.32l-15.73-15.73V78.53l-16.39-16.4V-2.81l22.8-22.8V-97.16l5.77-5.78a2.53,2.53,0,0,1,.8-3.5,2.53,2.53,0,0,1,3.5.8,2.54,2.54,0,0,1-.36,3.15Z" transform="translate(-227.73 238.13)"/><path class="cls-7" d="M363,395.2a2.56,2.56,0,0,1,3.15-.35l62.19-62.19V170.92l10.55-10.55h-.37V-14.79l5-5a2.53,2.53,0,0,1,.79-3.5,2.54,2.54,0,0,1,3.5.78,2.54,2.54,0,0,1-.35,3.16,2.51,2.51,0,0,1-3.14.35l-4.68,4.68V159.61l16.24-16.25v-129a2.54,2.54,0,1,1,1.13,0V143.83l-27.56,27.55V333.13l-62.52,62.52a2.51,2.51,0,0,1-.35,3.14A2.53,2.53,0,1,1,363,395.2Z" transform="translate(-227.73 238.13)"/><path class="cls-8" d="M238.23-146.81a2.25,2.25,0,0,0,0,3.18,2.26,2.26,0,0,0,2.82.32l4.13,4.16V15.46L230.75,1V-113.61a2.25,2.25,0,0,0,1.7-2.7,2.26,2.26,0,0,0-2.7-1.71,2.26,2.26,0,0,0-1.7,2.71,2.25,2.25,0,0,0,1.7,1.7v115l24.49,24.53v143.8l8.36,8.36v-1.41l-7.36-7.36V25.51l-9.38-9.38h.29v-155.7L241.7-144a2.25,2.25,0,0,0-.68-3.11,2.26,2.26,0,0,0-2.82.32Z" transform="translate(-227.73 238.13)"/><path class="cls-9" d="M323.93,354.08V220.94l-52.71-52.72v-213L256.83-59.16v-58l-1.78-1.79a2.27,2.27,0,0,0-.71-3.12,2.27,2.27,0,0,0-3.12.71,2.27,2.27,0,0,0,.71,3.12,2.28,2.28,0,0,0,2.41,0l1.49,1.49v58l14.39,14.37v213l52.71,52.71V354.08a2.26,2.26,0,1,0,1,0Z" transform="translate(-227.73 238.13)"/><path class="cls-10" d="M270.49-141.28v73.75L283-55V158l52.15,52.19V338.63a2.26,2.26,0,1,0,1,0V209.72L284,157.53v-213L271.45-68v-73.74l-9.92-9.92a2.27,2.27,0,0,0-.71-3.12,2.27,2.27,0,0,0-3.12.71,2.27,2.27,0,0,0,.71,3.12,2.28,2.28,0,0,0,2.41,0Z" transform="translate(-227.73 238.13)"/><path class="cls-11" d="M301.41-235.88a2.26,2.26,0,0,0,1.76,2.2v20.31l9,9v58.7l9.19,9.18V-53L311.15-42.84v-58.92l-18.77-18.77v-76.28l-16-16a2.27,2.27,0,0,0-.71-3.12,2.27,2.27,0,0,0-3.12.71,2.27,2.27,0,0,0,.71,3.12,2.28,2.28,0,0,0,2.41,0l15.68,15.67v76.32l18.8,18.77v59.5L304-35.72V155.59l47.12,47.13V350.89a2.26,2.26,0,1,0,1,0V202.3l-3.73-3.73V107.4l19.17-19.17V34.88l.11.11,15.53-15.52V-60l5.91-5.91v-70.73l20.55,20.54v51.84L419.77-54.2V42.22L408,54V70.38L381.43,96.93V54.72l18.65-18.64V-15.06a2.25,2.25,0,0,0,1.7-2.7,2.26,2.26,0,0,0-2.7-1.71,2.26,2.26,0,0,0-1.7,2.71,2.25,2.25,0,0,0,1.7,1.7V35.63L380.43,54.26v70.29L366.59,138.4V290.9h.56l-15,15,.7.71,44.49-44.48V211.3l.65.65,23.32-23.3V89.6l10.37-10.38V-73.93a2.24,2.24,0,0,0,1.69-2.69,2.25,2.25,0,0,0-2.69-1.7,2.25,2.25,0,0,0-1.69,2.7,2.24,2.24,0,0,0,1.69,1.69V78.72l-34.34,34.35V261.72L367.6,290.49V254.37l17.83-17.84V163.3a2.25,2.25,0,1,0-1,0v72.82L367.6,253V138.81L381.44,125V97l.65.65L409,70.79V54.41l11.78-11.78V-54.63L410.7-64.72v-51.81L389.33-137.9l-.18.18v-43.56a2.24,2.24,0,0,0,1.69-2.69,2.25,2.25,0,0,0-2.69-1.7,2.25,2.25,0,0,0-1.69,2.7,2.24,2.24,0,0,0,1.69,1.69V-66.35l-5.52,5.54h-.39v.38L366.6-44.78V87.81L347.43,107v90.59L335.06,185.2h.85V92l16.78-16.78v-131L367.86-71v-70.7l-8.57-8.58a2.28,2.28,0,0,0-.68-3.14,2.28,2.28,0,0,0-3.14.69,2.26,2.26,0,0,0,.68,3.13,2.27,2.27,0,0,0,2.43,0l8.28,8.3V-71.4L351.69-56.28v131L334.91,91.49v93.56L305,155.18V-35.28l5.54-5.54h.58v-.58l11.19-11.19v-84.28l-9.19-9.19v-58.71l-9-9v-19.9a2.25,2.25,0,0,0,1.7-2.7,2.26,2.26,0,0,0-2.7-1.71,2.27,2.27,0,0,0-1.76,2.21Zm119,326.44v97.63l-23,23V113.52ZM382.26-59V19.06L367.6,33.72V-44.34Z" transform="translate(-227.73 238.13)"/><path class="cls-12" d="M319.59-217.52a2.25,2.25,0,0,0,2.79.31l4.84,4.84v63.6l20.27,20.27v56.9L332.92-57V48.81l-14,14V168.43h1V63.2l14-14V-56.61l14.57-14.58v-57.72l-20.27-20.27v-63.6l-5.13-5.14a2.24,2.24,0,0,0-.72-3.1,2.24,2.24,0,0,0-3.1.72,2.25,2.25,0,0,0,.32,2.78Z" transform="translate(-227.73 238.13)"/></g></g></svg>